<svg width="356" height="351" viewBox="0 0 356 351" fill="none" xmlns="http://www.w3.org/2000/svg">
<path d="M147.459 305.105L136.51 338.253L125.31 334.553C122.709 333.694 120.739 332.523 119.398 331.039C118.043 329.562 117.228 327.899 116.953 326.049C116.679 324.199 116.864 322.297 117.509 320.344C118.154 318.391 119.14 316.748 120.466 315.415C121.781 314.078 123.421 313.208 125.385 312.803C127.346 312.41 129.616 312.639 132.195 313.491L140.223 316.142L139.047 319.703L131.148 317.094C129.368 316.506 127.837 316.342 126.554 316.6C125.272 316.859 124.216 317.431 123.384 318.318C122.539 319.211 121.897 320.321 121.458 321.649C121.02 322.976 120.876 324.245 121.027 325.455C121.167 326.662 121.683 327.743 122.577 328.696C123.467 329.66 124.814 330.44 126.616 331.035L133.672 333.366L143.445 303.779L147.459 305.105Z" fill="white"/>
<path d="M115.138 292.749L95.9211 321.893L86.0737 315.4C83.7969 313.898 82.1844 312.277 81.2364 310.536C80.2821 308.804 79.8981 307.033 80.0843 305.223C80.2706 303.413 80.9298 301.65 82.0621 299.932C83.1943 298.215 84.5493 296.924 86.1271 296.059C87.7049 295.194 89.4698 294.86 91.4217 295.058C93.3674 295.266 95.4692 296.114 97.7271 297.603L105.696 302.857L103.594 306.045L95.7391 300.865C94.1832 299.84 92.7808 299.242 91.5319 299.071C90.2734 298.895 89.1555 299.083 88.1781 299.637C87.185 300.193 86.3037 301.055 85.5343 302.222C84.7649 303.389 84.3106 304.553 84.1715 305.713C84.0324 306.874 84.2855 308.007 84.9309 309.113C85.5701 310.229 86.6771 311.306 88.2519 312.344L94.4563 316.435L111.609 290.422L115.138 292.749ZM92.7873 296.796L94.2478 278.975L98.3462 281.677L96.7718 299.423L92.7873 296.796Z" fill="white"/>
<path d="M54.6779 261.442C57.4894 259.065 60.3482 257.518 63.2545 256.802C66.1608 256.085 68.9178 256.143 71.5253 256.973C74.1328 257.804 76.3978 259.357 78.3202 261.63C80.2426 263.904 81.3968 266.395 81.783 269.104C82.1691 271.814 81.7675 274.542 80.5782 277.289C79.3888 280.035 77.3885 282.598 74.577 284.975C71.7656 287.352 68.9067 288.899 66.0004 289.615C63.0941 290.332 60.3372 290.275 57.7297 289.444C55.1222 288.613 52.8572 287.06 50.9348 284.787C49.0124 282.514 47.8581 280.022 47.472 277.313C47.0858 274.603 47.4874 271.875 48.6768 269.128C49.8661 266.382 51.8665 263.82 54.6779 261.442ZM57.3194 264.566C55.0113 266.518 53.3897 268.551 52.4548 270.666C51.5126 272.773 51.1876 274.826 51.4799 276.826C51.7649 278.817 52.5897 280.62 53.9545 282.234C55.3192 283.848 56.9634 284.965 58.887 285.585C60.8033 286.197 62.8819 286.218 65.1229 285.647C67.3565 285.068 69.6274 283.803 71.9356 281.851C74.2437 279.899 75.8689 277.87 76.8111 275.764C77.746 273.649 78.071 271.596 77.7861 269.604C77.4938 267.604 76.6652 265.797 75.3005 264.183C73.9357 262.57 72.2952 261.457 70.3789 260.845C68.4553 260.224 66.3767 260.204 64.1431 260.783C61.9021 261.353 59.6276 262.614 57.3194 264.566Z" fill="white"/>
<path d="M25.373 242.725L23.6082 238.884L46.284 228.466C48.3079 227.536 50.198 227.118 51.9542 227.211C53.7105 227.305 55.2659 227.86 56.6205 228.876C57.9751 229.891 59.0747 231.318 59.9191 233.156C60.7161 234.891 61.1104 236.58 61.102 238.222C61.0833 239.869 60.6632 241.35 59.8419 242.665C59.0205 243.98 57.7992 245.01 56.1781 245.755L54.4417 241.976C55.3401 241.563 56.0229 240.98 56.4901 240.228C56.9422 239.47 57.1738 238.613 57.185 237.658C57.1962 236.702 56.9717 235.724 56.5115 234.722C56.0039 233.617 55.3399 232.784 54.5194 232.223C53.6989 231.662 52.747 231.387 51.6636 231.397C50.5652 231.401 49.3602 231.705 48.0488 232.307L25.373 242.725Z" fill="white"/>
<path d="M51.0937 211.847L16.8045 218.396L12.8518 197.702L16.5352 196.999L19.6948 213.541L31.2808 211.328L28.3259 195.857L32.0093 195.154L34.9642 210.624L46.6172 208.398L43.4064 191.589L47.0898 190.885L51.0937 211.847Z" fill="white"/>
<path d="M24.5892 149.634L24.2407 153.847C23.0084 153.996 21.9077 154.344 20.9389 154.891C19.971 155.426 19.1391 156.11 18.4431 156.942C17.7368 157.762 17.1811 158.691 16.7759 159.729C16.3708 160.767 16.1204 161.864 16.0249 163.019C15.8506 165.125 16.2251 167.078 17.1482 168.876C18.0722 170.663 19.5288 172.146 21.5179 173.325C23.5079 174.493 26.0091 175.202 29.0216 175.451C32.034 175.7 34.6177 175.412 36.7726 174.587C38.9284 173.75 40.6089 172.527 41.8139 170.916C43.0199 169.294 43.71 167.43 43.8843 165.323C43.9798 164.168 43.9131 163.045 43.684 161.955C43.455 160.864 43.0651 159.857 42.5143 158.933C41.9532 157.997 41.2393 157.186 40.3725 156.498C39.4954 155.799 38.4669 155.274 37.2871 154.926L37.6356 150.713C39.3874 151.177 40.9307 151.886 42.2657 152.841C43.6007 153.795 44.7093 154.936 45.5915 156.263C46.4624 157.589 47.0885 159.049 47.4698 160.643C47.852 162.225 47.9706 163.894 47.8254 165.649C47.5799 168.617 46.6369 171.195 44.9962 173.386C43.3555 175.576 41.144 177.223 38.3617 178.327C35.5794 179.431 32.3536 179.831 28.6844 179.528C25.0151 179.224 21.8989 178.3 19.3358 176.753C16.7727 175.207 14.8619 173.219 13.6034 170.789C12.3449 168.359 11.8384 165.66 12.0838 162.693C12.229 160.938 12.6201 159.311 13.2571 157.813C13.8951 156.304 14.7582 154.967 15.8465 153.803C16.9235 152.637 18.1988 151.694 19.6724 150.972C21.1347 150.249 22.7736 149.803 24.5892 149.634Z" fill="white"/>
<path d="M21.4825 132.216L17.9744 130.891L27.225 106.398L30.7331 107.723L26.8546 117.992L56.004 129.002L54.5104 132.956L25.3611 121.947L21.4825 132.216Z" fill="white"/>
<path d="M75.4782 94.6556L50.2796 70.4963L58.4428 61.9819C60.3381 60.0051 62.2442 58.7312 64.1611 58.1604C66.0776 57.5735 67.9298 57.5546 69.7175 58.1037C71.5053 58.6528 73.1415 59.639 74.6262 61.0625C76.1109 62.4859 77.1692 64.0831 77.8013 65.854C78.4412 67.6168 78.5204 69.4717 78.039 71.4187C77.5494 73.3579 76.3648 75.3078 74.4852 77.2682L68.6341 83.371L65.9272 80.7758L71.6839 74.7714C72.9816 73.418 73.7898 72.107 74.1087 70.8384C74.4276 69.5699 74.3661 68.3696 73.9244 67.2377C73.4823 66.0896 72.7568 65.032 71.7478 64.0647C70.7389 63.0973 69.6557 62.4209 68.4983 62.0354C67.3487 61.6417 66.1512 61.6428 64.9058 62.0387C63.6521 62.4268 62.3686 63.3057 61.0553 64.6756L55.912 70.0401L78.4038 91.6042L75.4782 94.6556Z" fill="white"/>
<path d="M100.551 70.8093L82.5276 40.9129L92.6294 34.8229C94.965 33.4148 97.1228 32.658 99.1026 32.5525C101.077 32.4373 102.84 32.8536 104.393 33.8013C105.947 34.7491 107.254 36.1037 108.316 37.8652C109.378 39.6267 109.96 41.4057 110.061 43.2024C110.162 44.999 109.703 46.7354 108.683 48.4116C107.658 50.0781 105.987 51.6095 103.671 53.0059L95.496 57.9342L93.5247 54.6642L101.583 49.8063C103.179 48.8442 104.323 47.8361 105.014 46.7823C105.715 45.7226 106.027 44.6325 105.949 43.5121C105.874 42.3761 105.476 41.2096 104.754 40.0125C104.033 38.8155 103.178 37.9043 102.191 37.2788C101.203 36.6534 100.071 36.3936 98.7952 36.4996C97.513 36.5958 96.0642 37.1309 94.4487 38.1048L88.084 41.9419L104.171 68.6268L100.551 70.8093ZM106.527 48.8956L121.981 57.8902L117.777 60.4247L102.44 51.3597L106.527 48.8956Z" fill="white"/>
<path d="M154.848 29.7319C155.783 33.2932 155.947 36.5396 155.342 39.471C154.737 42.4024 153.497 44.8658 151.624 46.861C149.751 48.8563 147.375 50.2317 144.495 50.9873C141.615 51.7429 138.869 51.7115 136.258 50.8929C133.646 50.0743 131.357 48.5367 129.391 46.2801C127.424 44.0235 125.974 41.1146 125.039 37.5533C124.105 33.9921 123.94 30.7457 124.546 27.8143C125.151 24.8828 126.39 22.4195 128.263 20.4242C130.137 18.429 132.513 17.0535 135.393 16.2979C138.273 15.5423 141.018 15.5738 143.63 16.3924C146.241 17.211 148.53 18.7486 150.497 21.0051C152.463 23.2617 153.914 26.1707 154.848 29.7319ZM150.891 30.7702C150.124 27.8464 148.988 25.5071 147.482 23.7524C145.987 21.9947 144.274 20.817 142.343 20.2193C140.423 19.6187 138.441 19.5866 136.396 20.123C134.352 20.6594 132.635 21.662 131.247 23.1307C129.869 24.5965 128.955 26.4634 128.505 28.7316C128.065 30.9968 128.229 33.5913 128.996 36.5151C129.763 39.4388 130.894 41.7796 132.389 43.5372C133.895 45.292 135.608 46.4697 137.528 47.0703C139.459 47.668 141.447 47.6987 143.491 47.1623C145.536 46.6258 147.247 45.6247 148.624 44.1589C150.013 42.6902 150.927 40.8233 151.366 38.558C151.817 36.2899 151.659 33.6939 150.891 30.7702Z" fill="white"/>
<path d="M184.363 11.3476L188.59 11.4096L188.224 36.3615C188.192 38.5885 187.755 40.4744 186.914 42.019C186.073 43.5637 184.902 44.7284 183.402 45.5134C181.902 46.2983 180.14 46.6759 178.118 46.6462C176.209 46.6182 174.515 46.2468 173.037 45.5318C171.559 44.8055 170.403 43.7885 169.57 42.4807C168.737 41.1729 168.333 39.627 168.359 37.8431L172.518 37.9041C172.504 38.8926 172.735 39.7597 173.213 40.5055C173.702 41.24 174.376 41.8181 175.233 42.2398C176.091 42.6615 177.071 42.8805 178.173 42.8966C179.388 42.9145 180.426 42.674 181.286 42.1752C182.146 41.6763 182.804 40.9359 183.262 39.9539C183.731 38.9607 183.976 37.7425 183.997 36.2995L184.363 11.3476Z" fill="white"/>
<path d="M201.15 47.8609L210.01 14.0948L230.388 19.4417L229.437 23.0689L213.147 18.7948L210.154 30.2041L225.388 34.2013L224.436 37.8285L209.202 33.8313L206.191 45.3065L222.744 49.6498L221.793 53.277L201.15 47.8609Z" fill="white"/>
<path d="M268.713 50.7401L265.061 48.6109C265.457 47.4346 265.617 46.2914 265.541 45.1815C265.474 44.0772 265.216 43.0319 264.765 42.0455C264.329 41.0551 263.73 40.1534 262.968 39.3405C262.205 38.5276 261.324 37.8292 260.322 37.2454C258.496 36.1808 256.573 35.6777 254.553 35.7362C252.542 35.8005 250.576 36.4761 248.655 37.7632C246.744 39.056 245.027 41.0081 243.504 43.6194C241.982 46.2307 241.129 48.6864 240.945 50.9866C240.772 53.2925 241.152 55.3361 242.086 57.1175C243.031 58.9045 244.416 60.3304 246.242 61.395C247.243 61.9788 248.285 62.4023 249.368 62.6654C250.452 62.9286 251.528 63.0106 252.599 62.9113C253.685 62.808 254.725 62.5134 255.719 62.0273C256.728 61.5371 257.644 60.8347 258.467 59.92L262.119 62.0492C260.945 63.4302 259.641 64.5176 258.204 65.3113C256.768 66.105 255.261 66.6141 253.683 66.8386C252.111 67.0533 250.524 66.9894 248.921 66.647C247.329 66.3103 245.772 65.6984 244.25 64.8112C241.678 63.3116 239.757 61.3497 238.487 58.9255C237.217 56.5013 236.683 53.796 236.885 50.8096C237.088 47.8231 238.116 44.7395 239.97 41.5588C241.825 38.3782 244.002 35.9643 246.501 34.3172C249 32.67 251.618 31.802 254.353 31.7131C257.088 31.6242 259.742 32.3295 262.314 33.8291C263.836 34.7163 265.135 35.77 266.213 36.9901C267.3 38.216 268.135 39.5708 268.717 41.0545C269.304 42.5284 269.606 44.0857 269.623 45.7266C269.646 47.3576 269.342 49.0288 268.713 50.7401Z" fill="white"/>
<path d="M285.77 55.4393L288.477 52.8441L306.596 71.7431L303.889 74.3383L296.292 66.4145L273.801 87.9786L270.875 84.9272L293.367 63.3631L285.77 55.4393Z" fill="white"/>
<path d="M296.408 120.348L329.066 108.014L333.233 119.049C334.201 121.611 334.529 123.88 334.219 125.855C333.923 127.838 333.142 129.517 331.876 130.894C330.611 132.271 329.016 133.323 327.092 134.05C325.168 134.776 323.27 135.044 321.4 134.851C319.533 134.669 317.825 133.942 316.275 132.669C314.736 131.391 313.487 129.482 312.527 126.942L309.54 119.033L313.048 117.708L315.987 125.489C316.65 127.243 317.485 128.537 318.492 129.372C319.5 130.206 320.609 130.667 321.821 130.756C323.048 130.852 324.315 130.653 325.622 130.159C326.93 129.665 328.007 128.979 328.853 128.1C329.704 127.233 330.219 126.151 330.398 124.857C330.588 123.558 330.347 122.021 329.677 120.246L327.051 113.294L297.902 124.303L296.408 120.348Z" fill="white"/>
<path d="M307.128 153.248L341.872 149.86L343.017 161.6C343.282 164.314 343.035 166.588 342.278 168.42C341.531 170.251 340.396 171.663 338.871 172.657C337.347 173.65 335.561 174.247 333.514 174.446C331.467 174.646 329.611 174.404 327.946 173.722C326.281 173.039 324.912 171.877 323.838 170.235C322.776 168.591 322.114 166.424 321.851 163.732L320.925 154.232L324.725 153.861L325.638 163.226C325.819 165.081 326.236 166.547 326.889 167.625C327.543 168.715 328.393 169.465 329.438 169.877C330.495 170.299 331.719 170.443 333.111 170.307C334.502 170.171 335.692 169.793 336.682 169.171C337.672 168.549 338.394 167.64 338.848 166.442C339.313 165.244 339.454 163.706 339.271 161.828L338.55 154.431L307.538 157.455L307.128 153.248ZM324.33 168.08L309.556 178.152L309.08 173.266L323.867 163.33L324.33 168.08Z" fill="white"/>
<path d="M320.81 219.944C317.194 219.253 314.193 218.003 311.808 216.194C309.424 214.385 307.734 212.205 306.741 209.655C305.747 207.105 305.529 204.368 306.088 201.444C306.646 198.519 307.857 196.055 309.721 194.051C311.585 192.047 313.958 190.643 316.842 189.841C319.726 189.038 322.976 188.982 326.592 189.673C330.209 190.363 333.209 191.613 335.594 193.422C337.979 195.232 339.668 197.411 340.662 199.961C341.656 202.511 341.873 205.248 341.315 208.172C340.756 211.097 339.545 213.561 337.681 215.565C335.818 217.569 333.444 218.973 330.56 219.776C327.677 220.578 324.427 220.634 320.81 219.944ZM321.578 215.925C324.547 216.492 327.147 216.474 329.38 215.871C331.61 215.279 333.411 214.24 334.782 212.755C336.151 211.282 337.034 209.507 337.43 207.43C337.827 205.354 337.661 203.373 336.934 201.488C336.205 199.613 334.914 197.984 333.061 196.6C331.206 195.228 328.794 194.258 325.825 193.691C322.856 193.124 320.256 193.136 318.026 193.728C315.793 194.332 313.993 195.37 312.624 196.844C311.252 198.329 310.369 200.11 309.972 202.186C309.576 204.262 309.742 206.237 310.471 208.112C311.199 209.998 312.49 211.627 314.345 212.999C316.198 214.383 318.609 215.358 321.578 215.925Z" fill="white"/>
<path d="M324.688 254.499L322.811 258.287L300.45 247.208C298.455 246.22 296.941 245.013 295.909 243.589C294.877 242.165 294.33 240.606 294.268 238.914C294.206 237.222 294.624 235.47 295.522 233.657C296.37 231.947 297.434 230.578 298.716 229.552C300.009 228.531 301.424 227.926 302.963 227.738C304.503 227.549 306.071 227.851 307.67 228.643L305.824 232.37C304.938 231.931 304.056 231.766 303.177 231.876C302.303 232.001 301.491 232.36 300.741 232.952C299.991 233.545 299.372 234.335 298.882 235.322C298.343 236.412 298.113 237.452 298.192 238.443C298.272 239.433 298.657 240.347 299.346 241.183C300.04 242.034 301.034 242.78 302.327 243.421L324.688 254.499Z" fill="white"/>
<path d="M284.504 253.921L311.161 276.461L297.557 292.549L294.694 290.127L305.568 277.268L296.561 269.651L286.391 281.678L283.528 279.257L293.697 267.23L284.638 259.57L273.588 272.638L270.725 270.216L284.504 253.921Z" fill="white"/>
<path d="M252.803 313.653L256.298 311.274C257.188 312.139 258.151 312.776 259.186 313.185C260.211 313.601 261.266 313.818 262.35 313.835C263.432 313.869 264.503 313.717 265.565 313.379C266.627 313.041 267.638 312.546 268.596 311.894C270.343 310.705 271.626 309.186 272.443 307.337C273.251 305.495 273.488 303.43 273.154 301.142C272.811 298.86 271.789 296.47 270.088 293.971C268.387 291.472 266.538 289.644 264.542 288.488C262.535 287.338 260.527 286.801 258.517 286.877C256.498 286.959 254.614 287.595 252.867 288.784C251.909 289.436 251.078 290.195 250.373 291.059C249.669 291.923 249.132 292.859 248.76 293.868C248.385 294.893 248.203 295.958 248.214 297.065C248.221 298.187 248.461 299.316 248.932 300.452L245.437 302.831C244.696 301.177 244.277 299.531 244.18 297.893C244.082 296.255 244.272 294.676 244.749 293.155C245.232 291.644 245.974 290.239 246.973 288.94C247.963 287.648 249.186 286.506 250.642 285.515C253.103 283.84 255.701 282.951 258.436 282.849C261.171 282.747 263.842 283.431 266.45 284.9C269.058 286.369 271.398 288.625 273.47 291.669C275.541 294.713 276.782 297.717 277.192 300.682C277.602 303.647 277.258 306.383 276.16 308.89C275.062 311.397 273.282 313.488 270.821 315.163C269.365 316.154 267.854 316.873 266.289 317.32C264.714 317.773 263.132 317.943 261.542 317.829C259.959 317.724 258.423 317.326 256.935 316.634C255.454 315.952 254.076 314.958 252.803 313.653Z" fill="white"/>
<path d="M241.215 327.022L242.391 330.583L217.53 338.794L216.354 335.234L226.777 331.791L217.005 302.204L221.019 300.878L230.791 330.465L241.215 327.022Z" fill="white"/>
</svg>
